<svg xmlns="http://www.w3.org/2000/svg" width="16.055" height="15.503" viewBox="0 0 16.055 15.503">
  <path id="dislike" d="M3.168,2.033,2.033,3.168,3.16,4.3A4.374,4.374,0,0,0,2.036,7.223c0,3.348,3.943,6.592,5.041,7.617,1.266,1.18,2.985,2.7,2.985,2.7s1.719-1.516,2.985-2.7c.094-.087.212-.2.343-.313l2.287,2.286,1.135-1.135Zm3.282.776c-.071,0-.139.008-.208.011L10.15,6.728l.011-.011L14.547,11.1l-.011.013,1.14,1.14c1.242-1.42,2.412-3.209,2.412-5.032a4.414,4.414,0,0,0-4.414-4.414,4.8,4.8,0,0,0-3.612,1.677A4.8,4.8,0,0,0,6.451,2.809Z" transform="translate(-2.033 -2.033)" fill="#949494"/>
</svg>
