<svg id="Group_542" data-name="Group 542" xmlns="http://www.w3.org/2000/svg" width="18.962" height="12.19" viewBox="0 0 18.962 12.19">
  <path id="icons8_Video" d="M11.835.695V.347A.41.41,0,0,0,11.384,0H1.451A.41.41,0,0,0,1,.347V.695h.9V1.736H1V7.293h.9V8.335H1v.347a.41.41,0,0,0,.451.347h9.932a.41.41,0,0,0,.451-.347V8.335h-.451V7.293h.451V1.736h-.451V.695Zm-5.869,0H7.321V1.736H5.966ZM4.612,8.335H3.257V7.293H4.612Zm0-6.6H3.257V.695H4.612Zm2.709,6.6H5.966V7.293H7.321ZM8.506,4.722,5.53,6.044c-.207.092-.466-.023-.466-.207V3.193c0-.184.259-.3.467-.207L8.507,4.307A.216.216,0,0,1,8.506,4.722ZM10.03,8.335H8.675V7.293H10.03Zm0-6.6H8.675V.695H10.03Z" transform="translate(7.127 3.16)" fill="#ff5959" opacity="0.47"/>
  <path id="icons8_picture" d="M2.9,5a.9.9,0,0,0-.9.9v7.224a.9.9,0,0,0,.9.9h9.932a.9.9,0,0,0,.9-.9V5.9a.9.9,0,0,0-.9-.9Zm8.578,1.354a.9.9,0,1,1-.9.9A.9.9,0,0,1,11.481,6.354ZM5.16,8.161a1.089,1.089,0,0,1,.772.32L7.405,9.954l.464.464.522.522a.489.489,0,0,0,.689-.693l-.52-.519L8.9,9.384a1.092,1.092,0,0,1,1.545,0l1.936,1.936v1.354H3.354V9.515L4.388,8.481A1.089,1.089,0,0,1,5.16,8.161Z" transform="translate(-2 -5)" fill="#ff5959"/>
</svg>
