<svg xmlns="http://www.w3.org/2000/svg" width="17.839" height="18.498" viewBox="0 0 17.839 18.498">
  <path id="blocking" d="M10.714,1.859A3.633,3.633,0,0,0,6.75,5.823,3.935,3.935,0,0,0,7.1,7.285a.773.773,0,0,0-.312.791c.108.848.476,1.064.71,1.081a3.449,3.449,0,0,0,1.236,1.95v1.321c-.661,1.982-5.946.661-5.946,5.285H10.4a5.919,5.919,0,0,1,2.969-7.309,2.919,2.919,0,0,0,.564-1.248c.234-.018.6-.234.71-1.081a.772.772,0,0,0-.312-.791,3.494,3.494,0,0,0,.348-1.462c0-1.6-.63-2.973-1.982-2.973A2.1,2.1,0,0,0,10.714,1.859ZM16,11.107a4.625,4.625,0,1,0,4.625,4.625A4.625,4.625,0,0,0,16,11.107ZM14.678,13.75a.658.658,0,0,1,.467.194L16,14.8l.854-.854a.661.661,0,1,1,.934.934l-.854.854.854.854a.661.661,0,1,1-.934.934L16,16.666l-.854.854a.661.661,0,0,1-.934-.934l.854-.854-.854-.854a.661.661,0,0,1,.467-1.128Z" transform="translate(-2.786 -1.859)" fill="#ff0404"/>
</svg>
