<svg xmlns="http://www.w3.org/2000/svg" width="18.498" height="18.498" viewBox="0 0 18.498 18.498">
  <path id="contact" d="M18.375,15.366a1.033,1.033,0,0,0-1.053.006l-1.645.98a1.03,1.03,0,0,1-1.166-.07,26.773,26.773,0,0,1-2.342-2.041A26.774,26.774,0,0,1,10.127,11.9a1.03,1.03,0,0,1-.07-1.166l.98-1.645a1.037,1.037,0,0,0,0-1.056L8.627,3.907a1.041,1.041,0,0,0-1.148-.485,3.412,3.412,0,0,0-1.6.96c-1.861,1.861-2.849,5,4.149,12s10.137,6.011,12,4.149a3.425,3.425,0,0,0,.961-1.6,1.036,1.036,0,0,0-.483-1.144Z" transform="translate(-4.522 -3.392)" fill="#ff0404"/>
</svg>
