<svg xmlns="http://www.w3.org/2000/svg" width="23.373" height="13.878" viewBox="0 0 23.373 13.878">
  <path id="cruise" d="M4.382,7v3.469L3.2,12.843H1.461v.73a13.54,13.54,0,0,0,.89,5.25,6.323,6.323,0,0,0,.274.571,1.927,1.927,0,0,1-.845-.3.69.69,0,0,1-.32-.411H0a1.991,1.991,0,0,0,.959,1.6,3.417,3.417,0,0,0,1.963.593,3.431,3.431,0,0,0,1.963-.593,2.785,2.785,0,0,0,.228-.183,2.784,2.784,0,0,0,.228.183,3.543,3.543,0,0,0,3.926,0A2.787,2.787,0,0,0,9.5,20.1a2.786,2.786,0,0,0,.228.183,3.543,3.543,0,0,0,3.926,0,2.786,2.786,0,0,0,.228-.183,2.786,2.786,0,0,0,.228.183,3.543,3.543,0,0,0,3.926,0,2.787,2.787,0,0,0,.228-.183,2.786,2.786,0,0,0,.228.183,3.543,3.543,0,0,0,3.926,0,1.984,1.984,0,0,0,.959-1.6H21.912a.666.666,0,0,1-.32.411,2.075,2.075,0,0,1-1.141.32,2.251,2.251,0,0,1-.685-.114,4.783,4.783,0,0,0,.8-.822,7.984,7.984,0,0,0,1.347-4.907v-.73H20.086l-1.963-2.625-.228-.3H16.434L14.471,7.3,14.243,7H8.925l-.137.548-.5,1.986L7.236,7.411,7.03,7ZM5.843,8.461h.274l.73,1.461h-1Zm4.223,0h3.447l1.1,1.461H9.7Zm-4.5,2.922h11.6l1.1,1.461H4.839ZM2.99,14.3H20.36a6.473,6.473,0,0,1-.959,3.31,3.369,3.369,0,0,1-1.324,1.073H17.53a.666.666,0,0,1-.32.411,2.2,2.2,0,0,1-2.283,0,.69.69,0,0,1-.32-.411H13.147a.666.666,0,0,1-.32.411,2.2,2.2,0,0,1-2.283,0,.69.69,0,0,1-.32-.411H8.765a.666.666,0,0,1-.32.411,2.2,2.2,0,0,1-2.283,0,.69.69,0,0,1-.32-.411H4.382a.655.655,0,0,1-.274.365,4.923,4.923,0,0,1-.411-.8A12.231,12.231,0,0,1,2.99,14.3Zm2.853,1.461a.73.73,0,1,0,.73.73A.732.732,0,0,0,5.843,15.765Zm2.922,0a.73.73,0,1,0,.73.73A.732.732,0,0,0,8.765,15.765Zm2.922,0a.73.73,0,1,0,.73.73A.732.732,0,0,0,11.687,15.765Zm2.922,0a.73.73,0,1,0,.73.73A.732.732,0,0,0,14.608,15.765Zm2.922,0a.73.73,0,1,0,.73.73A.732.732,0,0,0,17.53,15.765Z" transform="translate(0 -7)" fill="#ff0404"/>
</svg>
