<svg xmlns="http://www.w3.org/2000/svg" width="18.498" height="18.498" viewBox="0 0 18.498 18.498">
  <path id="_1" data-name="1" d="M21.544,4.727H6.409A1.681,1.681,0,0,0,4.727,6.409V21.544a1.681,1.681,0,0,0,1.682,1.682H21.544a1.681,1.681,0,0,0,1.682-1.682V6.409A1.681,1.681,0,0,0,21.544,4.727Zm-2.522,10.09H8.931a.841.841,0,0,1-.841-.841h0a.841.841,0,0,1,.841-.841h10.09a.841.841,0,0,1,.841.841h0A.841.841,0,0,1,19.021,14.817Zm0-4.2H8.931a.841.841,0,0,1-.841-.841h0a.841.841,0,0,1,.841-.841h10.09a.841.841,0,0,1,.841.841h0A.841.841,0,0,1,19.021,10.613Zm0,8.408H8.931a.841.841,0,0,1-.841-.841h0a.841.841,0,0,1,.841-.841h10.09a.841.841,0,0,1,.841.841h0A.841.841,0,0,1,19.021,19.021Z" transform="translate(-4.727 -4.727)" fill="#ff0404"/>
</svg>
