<svg xmlns="http://www.w3.org/2000/svg" width="19.209" height="18.447" viewBox="0 0 19.209 18.447">
  <path id="followers" d="M12.968,1.04A3.1,3.1,0,0,0,9.963,3.028a5.16,5.16,0,0,1,1.826,4.138,8.116,8.116,0,0,1-1.919,4.993c1.557.589,4,1.771,4.692,3.583,2.453-.136,4.646-.63,4.646-2.034v-.462c0-1.286-2.245-2.546-4.23-3.213-.09-.029-.659-.168-.3-1.271a6.15,6.15,0,0,0,1.572-4.092C16.251,2.294,14.774,1.04,12.968,1.04ZM6.634,3.328A3.512,3.512,0,0,0,3.051,7.165a6.632,6.632,0,0,0,1.78,4.369,1.571,1.571,0,0,1-.462,1.826C2.358,14.1,0,15.429,0,16.759v.509c0,1.812,3.456,2.219,6.657,2.219s6.634-.407,6.634-2.219v-.509c0-1.37-2.372-2.687-4.484-3.4a1.625,1.625,0,0,1-.324-1.849H8.46A6.679,6.679,0,0,0,10.31,7.165,3.582,3.582,0,0,0,6.634,3.328Z" transform="translate(0 -1.04)" fill="#ff0404"/>
</svg>
