<svg xmlns="http://www.w3.org/2000/svg" width="18.499" height="18.498" viewBox="0 0 18.499 18.498">
  <path id="following" d="M11.111,2.891A3.768,3.768,0,0,0,7,7a4.081,4.081,0,0,0,.361,1.516.8.8,0,0,0-.324.82c.112.879.493,1.1.736,1.121a3.576,3.576,0,0,0,1.282,2.022v1.37c-.685,2.055-6.166.685-6.166,5.481h8.186a6.147,6.147,0,0,1,3.275-8.48,1.83,1.83,0,0,0,.1-.393c.243-.019.624-.242.736-1.121a.8.8,0,0,0-.324-.82A3.624,3.624,0,0,0,15.222,7c0-1.664-.653-3.083-2.055-3.083A2.18,2.18,0,0,0,11.111,2.891ZM16.592,11.8a4.8,4.8,0,1,0,4.8,4.8A4.8,4.8,0,0,0,16.592,11.8Zm2.055,2.741a.685.685,0,0,1,.484,1.17l-2.741,2.741a.685.685,0,0,1-.969,0l-1.37-1.37a.685.685,0,0,1,.969-.969l.886.886,2.256-2.256A.683.683,0,0,1,18.648,14.537Z" transform="translate(-2.889 -2.891)" fill="#ff0404"/>
</svg>
