<svg xmlns="http://www.w3.org/2000/svg" width="52" height="52" viewBox="0 0 52 52">
  <g id="instagram-icon" transform="translate(-1708 -1731)">
    <circle id="Ellipse_23" data-name="Ellipse 23" cx="26" cy="26" r="26" transform="translate(1708 1731)" fill="#5f5f5f"/>
    <path id="Path_40" data-name="Path 40" d="M15.309,2.722a46.939,46.939,0,0,1,6.123.17,7.889,7.889,0,0,1,2.892.51,5.974,5.974,0,0,1,2.892,2.892,7.889,7.889,0,0,1,.51,2.892c0,1.531.17,2.041.17,6.123a46.938,46.938,0,0,1-.17,6.123,7.889,7.889,0,0,1-.51,2.892,5.974,5.974,0,0,1-2.892,2.892,7.889,7.889,0,0,1-2.892.51c-1.531,0-2.041.17-6.123.17a46.938,46.938,0,0,1-6.123-.17,7.889,7.889,0,0,1-2.892-.51A5.974,5.974,0,0,1,3.4,24.324a7.889,7.889,0,0,1-.51-2.892c0-1.531-.17-2.041-.17-6.123a46.939,46.939,0,0,1,.17-6.123A7.889,7.889,0,0,1,3.4,6.294a6.109,6.109,0,0,1,1.191-1.7A2.876,2.876,0,0,1,6.294,3.4a7.889,7.889,0,0,1,2.892-.51,46.939,46.939,0,0,1,6.123-.17m0-2.722A50.258,50.258,0,0,0,9.015.17,10.5,10.5,0,0,0,5.273.85a6.659,6.659,0,0,0-2.722,1.7A6.659,6.659,0,0,0,.85,5.273,7.75,7.75,0,0,0,.17,9.015,50.258,50.258,0,0,0,0,15.309,50.258,50.258,0,0,0,.17,21.6a10.5,10.5,0,0,0,.68,3.742,6.659,6.659,0,0,0,1.7,2.722,6.659,6.659,0,0,0,2.722,1.7,10.5,10.5,0,0,0,3.742.68,50.258,50.258,0,0,0,6.294.17,50.258,50.258,0,0,0,6.294-.17,10.5,10.5,0,0,0,3.742-.68,7.136,7.136,0,0,0,4.422-4.422,10.5,10.5,0,0,0,.68-3.742c0-1.7.17-2.211.17-6.294a50.258,50.258,0,0,0-.17-6.294,10.5,10.5,0,0,0-.68-3.742,6.659,6.659,0,0,0-1.7-2.722A6.659,6.659,0,0,0,25.344.85,10.5,10.5,0,0,0,21.6.17,50.258,50.258,0,0,0,15.309,0m0,7.484a7.7,7.7,0,0,0-7.824,7.824,7.824,7.824,0,1,0,7.824-7.824m0,12.927a5.012,5.012,0,0,1-5.1-5.1,5.012,5.012,0,0,1,5.1-5.1,5.012,5.012,0,0,1,5.1,5.1,5.012,5.012,0,0,1-5.1,5.1M23.473,5.273a1.871,1.871,0,1,0,1.871,1.871,1.888,1.888,0,0,0-1.871-1.871" transform="translate(1718.839 1742.152)" fill="#fff" fill-rule="evenodd"/>
  </g>
</svg>
