<svg xmlns="http://www.w3.org/2000/svg" width="21.151" height="22" viewBox="0 0 21.151 22">
  <path id="location" d="M21.212,2A5.171,5.171,0,0,0,16.1,7.094c-.073,2.647,2.465,6.134,3.98,7.96a1.454,1.454,0,0,0,1.132.53,1.515,1.515,0,0,0,1.132-.53c1.515-1.844,4.072-5.313,3.98-7.96A5.171,5.171,0,0,0,21.212,2ZM14.59,3.026a.562.562,0,0,0-.115.015A10.6,10.6,0,0,0,16.666,24a10.882,10.882,0,0,0,3.633-.639,10.429,10.429,0,0,0,5.97-5.477,10.808,10.808,0,0,0,.95-3.433.55.55,0,0,0-1.1-.109,9.7,9.7,0,0,1-.84,3.086,9.482,9.482,0,0,1-12.6,4.6,10.7,10.7,0,0,1-1-.548,2.188,2.188,0,0,0,.931-.274c.329-.183.675-.4,1.059-.657a2.322,2.322,0,0,0,.639-.694,4.888,4.888,0,0,0,.511-1.077c.712-2.739-1.661-2.848-1.734-3.451-.073-.676.8-1.187,1.333-1.716a1.652,1.652,0,0,0,.42-1.826c-.876-1.57-2.957-.749-3.158.931a4.8,4.8,0,0,1-1.223,2.556,1.142,1.142,0,0,1-1.789-.511c-.31-.84.767-1.15.6-2.228-.037-.292-.347-.438-.73-.493l-1.26.036a9.06,9.06,0,0,1,.8-2.647,9.334,9.334,0,0,1,6.628-5.313.553.553,0,0,0-.122-1.092Zm6.622,2.26a1.826,1.826,0,1,1-1.826,1.826A1.831,1.831,0,0,1,21.212,5.286Z" transform="translate(-6.071 -2)" fill="#ff0404"/>
</svg>
