<svg id="menu-back" xmlns="http://www.w3.org/2000/svg" width="28" height="28" viewBox="0 0 28 28">
  <circle id="Ellipse_33" data-name="Ellipse 33" cx="14" cy="14" r="14" fill="#fff"/>
  <path id="icons8_back_2" d="M10.328,12.868l4.41-4.41a1.225,1.225,0,0,0,0-1.731h0a1.225,1.225,0,0,0-1.731,0L7.681,12.052a1.153,1.153,0,0,0,0,1.632l5.325,5.325a1.225,1.225,0,0,0,1.731,0h0a1.225,1.225,0,0,0,0-1.731Z" transform="translate(0.051 1.414)" fill="#5b5b5b" opacity="0.87"/>
  <path id="icons8_back_2-2" data-name="icons8_back_2" d="M10.328,12.868l4.41-4.41a1.225,1.225,0,0,0,0-1.731h0a1.225,1.225,0,0,0-1.731,0L7.681,12.052a1.153,1.153,0,0,0,0,1.632l5.325,5.325a1.225,1.225,0,0,0,1.731,0h0a1.225,1.225,0,0,0,0-1.731Z" transform="translate(5.031 1.414)" fill="#5b5b5b" opacity="0.51"/>
</svg>
