<svg xmlns="http://www.w3.org/2000/svg" width="18.498" height="18.498" viewBox="0 0 18.498 18.498">
  <path id="messages" d="M6.269,3A1.423,1.423,0,0,0,4.846,4.423H16.941a2.134,2.134,0,0,1,2.134,2.134v9.249A1.423,1.423,0,0,0,20.5,14.383V4.423A1.423,1.423,0,0,0,19.075,3ZM3.423,5.846A1.423,1.423,0,0,0,2,7.269v9.96a1.423,1.423,0,0,0,1.423,1.423H5.557v2.134a.711.711,0,0,0,1.308.386l1.893-2.521h7.472a1.423,1.423,0,0,0,1.423-1.423V7.269a1.423,1.423,0,0,0-1.423-1.423Z" transform="translate(-2 -3)" fill="#ff0404"/>
</svg>
