<svg xmlns="http://www.w3.org/2000/svg" width="18.493" height="18.498" viewBox="0 0 18.493 18.498">
  <path id="notification" d="M15.44,4.519A6.409,6.409,0,0,0,10.894,6.4L9.3,8a9.568,9.568,0,0,1-3.149,2.086L16.3,20.239a9.576,9.576,0,0,1,2.086-3.149l1.6-1.6a6.427,6.427,0,0,0,.931-7.9A1.606,1.606,0,1,0,18.8,5.471,6.419,6.419,0,0,0,15.44,4.519ZM4.182,10.137a.8.8,0,0,0-.56,1.38L7.98,15.876a2.007,2.007,0,1,0,2.535,2.535l4.358,4.358a.8.8,0,1,0,1.136-1.136L4.758,10.38a.8.8,0,0,0-.576-.243Z" transform="translate(-3.378 -4.519)" fill="#ff0404"/>
</svg>
