<svg xmlns="http://www.w3.org/2000/svg" width="555.129" height="103.293" viewBox="0 0 555.129 103.293">
  <path id="Path_236" data-name="Path 236" d="M4.478-38.226H22.835v3.086H7.686V-25.4H22.7v3.043H7.686V-10.1H22.7v3.086H4.478ZM52.286-30.1V-7.017H49.3v-3.955q-4.055,4.738-9.49,4.738a11.636,11.636,0,0,1-8.577-3.629,11.905,11.905,0,0,1-3.587-8.672,11.676,11.676,0,0,1,3.609-8.585A11.83,11.83,0,0,1,39.9-30.706a11.215,11.215,0,0,1,9.4,4.825V-30.1ZM49.479-18.448a9.068,9.068,0,0,0-2.718-6.672,9.033,9.033,0,0,0-6.639-2.717,8.944,8.944,0,0,0-6.683,2.8,9.154,9.154,0,0,0-2.718,6.585,9.179,9.179,0,0,0,2.762,6.672,8.986,8.986,0,0,0,6.639,2.8,9.114,9.114,0,0,0,6.594-2.695A9.077,9.077,0,0,0,49.479-18.448ZM58.88-30.1H62v3.347a11.71,11.71,0,0,1,2.428-3,4.354,4.354,0,0,1,2.829-.956,5.848,5.848,0,0,1,2.718.782L68.37-27.4a2.7,2.7,0,0,0-1.381-.391A3.5,3.5,0,0,0,64.383-26.4a8.679,8.679,0,0,0-1.8,3.586A36.435,36.435,0,0,0,62-14.841v7.824H58.88Zm15.461,0h3.074v4.129q3.654-4.738,8.867-4.738a8.537,8.537,0,0,1,4.812,1.413,7.718,7.718,0,0,1,3.03,3.695,19.39,19.39,0,0,1,.891,6.716V-7.017h-3.03v-11a25.61,25.61,0,0,0-.379-5.477,6.678,6.678,0,0,0-1.158-2.434,4.982,4.982,0,0,0-1.983-1.521,7.009,7.009,0,0,0-2.807-.522,7.659,7.659,0,0,0-3.475.826,8.192,8.192,0,0,0-2.807,2.3A8.266,8.266,0,0,0,77.816-21.8a31.18,31.18,0,0,0-.4,6.3v8.476H74.341Zm63.669,0V-7.017h-2.985v-3.955q-4.055,4.738-9.49,4.738a11.636,11.636,0,0,1-8.577-3.629,11.905,11.905,0,0,1-3.587-8.672,11.676,11.676,0,0,1,3.609-8.585,11.83,11.83,0,0,1,8.644-3.586,11.215,11.215,0,0,1,9.4,4.825V-30.1ZM135.2-18.448a9.068,9.068,0,0,0-2.718-6.672,9.033,9.033,0,0,0-6.639-2.717,8.944,8.944,0,0,0-6.683,2.8,9.154,9.154,0,0,0-2.718,6.585,9.179,9.179,0,0,0,2.762,6.672,8.986,8.986,0,0,0,6.639,2.8,9.114,9.114,0,0,0,6.594-2.695A9.077,9.077,0,0,0,135.2-18.448ZM167.55-38.4v2.912a7.751,7.751,0,0,0-2.9-.739q-1.559,0-1.96.848a6.92,6.92,0,0,0-.4,2.76V-30.1h4.946v2.521h-4.946v20.56h-3.074v-20.56h-3.074V-30.1h3.074v-3a7.081,7.081,0,0,1,1.158-4.477,4.364,4.364,0,0,1,3.609-1.434A13.516,13.516,0,0,1,167.55-38.4Zm3.965,8.3h3.119v3.347a11.709,11.709,0,0,1,2.428-3,4.354,4.354,0,0,1,2.829-.956,5.848,5.848,0,0,1,2.718.782l-1.6,2.521a2.7,2.7,0,0,0-1.381-.391,3.5,3.5,0,0,0-2.606,1.391,8.679,8.679,0,0,0-1.8,3.586,36.436,36.436,0,0,0-.579,7.976v7.824h-3.119Zm35.377,15.6,2.584,1.3q-3.832,6.955-11.317,6.955a11.76,11.76,0,0,1-8.822-3.586,11.9,11.9,0,0,1-3.475-8.585,12.039,12.039,0,0,1,3.5-8.693,11.534,11.534,0,0,1,8.621-3.608,12.048,12.048,0,0,1,8.666,3.347,12.461,12.461,0,0,1,3.631,9.128h-21.3a9.5,9.5,0,0,0,2.7,6.716,8.5,8.5,0,0,0,6.215,2.543A9.646,9.646,0,0,0,206.893-14.493Zm0-6.3a8.074,8.074,0,0,0-3.119-5.173,9.329,9.329,0,0,0-5.748-1.869q-6.683,0-8.733,7.042Zm29.852,6.3,2.584,1.3Q235.5-6.234,228.012-6.234A11.76,11.76,0,0,1,219.19-9.82a11.9,11.9,0,0,1-3.475-8.585,12.039,12.039,0,0,1,3.5-8.693,11.534,11.534,0,0,1,8.621-3.608,12.048,12.048,0,0,1,8.666,3.347,12.461,12.461,0,0,1,3.631,9.128h-21.3a9.5,9.5,0,0,0,2.7,6.716,8.5,8.5,0,0,0,6.215,2.543A9.646,9.646,0,0,0,236.745-14.493Zm0-6.3a8.074,8.074,0,0,0-3.119-5.173,9.329,9.329,0,0,0-5.748-1.869q-6.683,0-8.733,7.042Zm19.738-9.3h3.253l7.886,17.561L275.508-30.1h3.253L267.933-6.234H267.4Zm51.372,0V-7.017H304.87v-3.955q-4.055,4.738-9.49,4.738A11.636,11.636,0,0,1,286.8-9.864a11.905,11.905,0,0,1-3.587-8.672,11.675,11.675,0,0,1,3.609-8.585,11.83,11.83,0,0,1,8.644-3.586,11.215,11.215,0,0,1,9.4,4.825V-30.1Zm-2.807,11.649a9.068,9.068,0,0,0-2.718-6.672,9.033,9.033,0,0,0-6.639-2.717,8.944,8.944,0,0,0-6.683,2.8,9.154,9.154,0,0,0-2.718,6.585,9.179,9.179,0,0,0,2.762,6.672,8.986,8.986,0,0,0,6.639,2.8,9.114,9.114,0,0,0,6.594-2.695A9.077,9.077,0,0,0,305.048-18.448Zm35.288-6.868-2.406,1.478a10.214,10.214,0,0,0-8.555-4.042,10.177,10.177,0,0,0-7.173,2.673,8.657,8.657,0,0,0-2.9,6.629,9.206,9.206,0,0,0,2.852,6.781,9.83,9.83,0,0,0,7.218,2.825,10.606,10.606,0,0,0,8.555-4.042l2.406,1.565a11.47,11.47,0,0,1-4.79,3.869,15.672,15.672,0,0,1-6.483,1.347,12.718,12.718,0,0,1-9.156-3.521,11.412,11.412,0,0,1-3.676-8.563,11.79,11.79,0,0,1,3.72-8.759,13.114,13.114,0,0,1,9.557-3.629,14.2,14.2,0,0,1,6.349,1.434A10.621,10.621,0,0,1,340.336-25.316ZM368.9-30.1V-7.017H365.91v-3.955q-4.055,4.738-9.49,4.738a11.636,11.636,0,0,1-8.577-3.629,11.905,11.905,0,0,1-3.587-8.672,11.676,11.676,0,0,1,3.609-8.585,11.83,11.83,0,0,1,8.644-3.586,11.215,11.215,0,0,1,9.4,4.825V-30.1Zm-2.807,11.649a9.068,9.068,0,0,0-2.718-6.672,9.033,9.033,0,0,0-6.639-2.717,8.944,8.944,0,0,0-6.683,2.8,9.155,9.155,0,0,0-2.718,6.585,9.179,9.179,0,0,0,2.762,6.672,8.986,8.986,0,0,0,6.639,2.8,9.114,9.114,0,0,0,6.594-2.695A9.077,9.077,0,0,0,366.089-18.448Zm13.233-20.56H382.4V-30.1h4.812v2.521H382.4v20.56h-3.074v-20.56h-4.188V-30.1h4.188Zm11.9,2.478a2.385,2.385,0,0,1,.735-1.739,2.4,2.4,0,0,1,1.76-.739,2.485,2.485,0,0,1,1.8.717,2.364,2.364,0,0,1,.735,1.76,2.314,2.314,0,0,1-.735,1.717,2.485,2.485,0,0,1-1.8.717,2.4,2.4,0,0,1-1.76-.739A2.337,2.337,0,0,1,391.218-36.53Zm.98,6.433h3.074V-7.017H392.2ZM401.332-18.4a11.884,11.884,0,0,1,3.587-8.693,11.876,11.876,0,0,1,8.755-3.608,11.824,11.824,0,0,1,8.711,3.608,11.884,11.884,0,0,1,3.587,8.693,11.785,11.785,0,0,1-3.542,8.585,11.819,11.819,0,0,1-8.755,3.586A11.892,11.892,0,0,1,404.9-9.82,11.748,11.748,0,0,1,401.332-18.4Zm21.565.043a9.167,9.167,0,0,0-2.74-6.629,8.765,8.765,0,0,0-6.483-2.8,8.743,8.743,0,0,0-6.505,2.8,9.205,9.205,0,0,0-2.718,6.629,9.1,9.1,0,0,0,2.629,6.607,8.83,8.83,0,0,0,6.594,2.695,8.856,8.856,0,0,0,6.527-2.717A9,9,0,0,0,422.9-18.361ZM432.521-30.1h3.074v4.129q3.654-4.738,8.867-4.738a8.537,8.537,0,0,1,4.812,1.413A7.719,7.719,0,0,1,452.3-25.6a19.39,19.39,0,0,1,.891,6.716V-7.017h-3.03v-11a25.608,25.608,0,0,0-.379-5.477,6.678,6.678,0,0,0-1.158-2.434,4.982,4.982,0,0,0-1.983-1.521,7.009,7.009,0,0,0-2.807-.522,7.659,7.659,0,0,0-3.475.826,8.192,8.192,0,0,0-2.807,2.3A8.266,8.266,0,0,0,436-21.8a31.18,31.18,0,0,0-.4,6.3v8.476h-3.074Zm63.669,0V-7.017H493.2v-3.955q-4.055,4.738-9.49,4.738a11.636,11.636,0,0,1-8.577-3.629,11.905,11.905,0,0,1-3.587-8.672,11.676,11.676,0,0,1,3.609-8.585,11.83,11.83,0,0,1,8.644-3.586,11.215,11.215,0,0,1,9.4,4.825V-30.1Zm-2.807,11.649a9.068,9.068,0,0,0-2.718-6.672,9.033,9.033,0,0,0-6.639-2.717,8.944,8.944,0,0,0-6.683,2.8,9.155,9.155,0,0,0-2.718,6.585,9.18,9.18,0,0,0,2.762,6.672,8.986,8.986,0,0,0,6.639,2.8,9.114,9.114,0,0,0,6.594-2.695A9.077,9.077,0,0,0,493.383-18.448ZM503.943-30.1h3.074v4.129q3.654-4.738,8.866-4.738a8.537,8.537,0,0,1,4.812,1.413,7.719,7.719,0,0,1,3.03,3.695,19.391,19.391,0,0,1,.891,6.716V-7.017h-3.03v-11a25.613,25.613,0,0,0-.379-5.477,6.678,6.678,0,0,0-1.158-2.434,4.982,4.982,0,0,0-1.983-1.521,7.009,7.009,0,0,0-2.807-.522,7.659,7.659,0,0,0-3.475.826,8.192,8.192,0,0,0-2.807,2.3,8.266,8.266,0,0,0-1.559,3.043,31.181,31.181,0,0,0-.4,6.3v8.476h-3.074Zm51.684-8.911V-7.017h-2.985v-3.955q-4.055,4.738-9.49,4.738a11.648,11.648,0,0,1-8.6-3.608,11.921,11.921,0,0,1-3.564-8.693A11.675,11.675,0,0,1,534.6-27.12a11.83,11.83,0,0,1,8.644-3.586,11.215,11.215,0,0,1,9.4,4.825V-39.008ZM552.82-18.4a9.22,9.22,0,0,0-2.673-6.694,8.956,8.956,0,0,0-6.683-2.738,8.924,8.924,0,0,0-6.706,2.8,9.193,9.193,0,0,0-2.7,6.585,9.2,9.2,0,0,0,2.762,6.65,8.952,8.952,0,0,0,6.639,2.825,9.249,9.249,0,0,0,6.505-2.673A8.867,8.867,0,0,0,552.82-18.4ZM3.5,20.861H6.572V39.074l10.916-9.3h4.5l-13.01,11L22.746,52.852H18.424L6.572,42.464V52.852H3.5Zm43.62,24.515,2.584,1.3q-3.832,6.955-11.317,6.955a11.76,11.76,0,0,1-8.822-3.586,11.9,11.9,0,0,1-3.475-8.585,12.039,12.039,0,0,1,3.5-8.693,11.534,11.534,0,0,1,8.621-3.608,12.048,12.048,0,0,1,8.666,3.347A12.461,12.461,0,0,1,50.5,41.638h-21.3a9.5,9.5,0,0,0,2.7,6.716A8.5,8.5,0,0,0,38.117,50.9,9.646,9.646,0,0,0,47.118,45.376Zm0-6.3A8.074,8.074,0,0,0,44,33.9a9.329,9.329,0,0,0-5.748-1.869q-6.683,0-8.733,7.042Zm29.852,6.3,2.584,1.3q-3.832,6.955-11.317,6.955a11.76,11.76,0,0,1-8.822-3.586,11.9,11.9,0,0,1-3.475-8.585,12.039,12.039,0,0,1,3.5-8.693,11.534,11.534,0,0,1,8.621-3.608,12.048,12.048,0,0,1,8.666,3.347,12.461,12.461,0,0,1,3.631,9.128h-21.3a9.5,9.5,0,0,0,2.7,6.716A8.5,8.5,0,0,0,67.969,50.9,9.646,9.646,0,0,0,76.97,45.376Zm0-6.3A8.074,8.074,0,0,0,73.851,33.9,9.329,9.329,0,0,0,68.1,32.032q-6.683,0-8.733,7.042Zm9.98-9.3h3.03v4.216a11.215,11.215,0,0,1,9.4-4.825,12.284,12.284,0,0,1,12.208,12.171,11.921,11.921,0,0,1-3.564,8.693,11.6,11.6,0,0,1-8.555,3.608q-5.436,0-9.49-4.738V61.285H86.95Zm21.609,11.649a9.4,9.4,0,1,0-16.04,6.759A9.182,9.182,0,0,0,99.2,50.9a9.467,9.467,0,0,0,9.357-9.476Zm24.327-20.56h3.074v8.911h4.812v2.521h-4.812v20.56h-3.074V32.293H128.7V29.772h4.188Zm13.322,0h3.074V33.9q3.654-4.738,8.866-4.738a8.537,8.537,0,0,1,4.812,1.413,7.719,7.719,0,0,1,3.03,3.695,19.391,19.391,0,0,1,.891,6.716V52.852h-3.074v-11a35.588,35.588,0,0,0-.223-4.912,6.97,6.97,0,0,0-.98-2.565,4.927,4.927,0,0,0-2.027-1.847,6.8,6.8,0,0,0-3.052-.63,7.659,7.659,0,0,0-3.475.826,8.66,8.66,0,0,0-4.366,5.346,31.179,31.179,0,0,0-.4,6.3v8.476h-3.074Zm47.986,24.515,2.584,1.3q-3.832,6.955-11.317,6.955a11.76,11.76,0,0,1-8.822-3.586,11.9,11.9,0,0,1-3.475-8.585,12.039,12.039,0,0,1,3.5-8.693,11.534,11.534,0,0,1,8.621-3.608,12.049,12.049,0,0,1,8.666,3.347,12.461,12.461,0,0,1,3.631,9.128h-21.3a9.5,9.5,0,0,0,2.7,6.716,8.5,8.5,0,0,0,6.215,2.543A9.646,9.646,0,0,0,194.194,45.376Zm0-6.3a8.074,8.074,0,0,0-3.119-5.173,9.329,9.329,0,0,0-5.748-1.869q-6.683,0-8.733,7.042Zm46.694-4.521-2.406,1.478a11.024,11.024,0,0,0-15.728-1.369,8.657,8.657,0,0,0-2.9,6.629,9.206,9.206,0,0,0,2.852,6.781,9.83,9.83,0,0,0,7.218,2.825,10.606,10.606,0,0,0,8.555-4.042l2.406,1.565a11.47,11.47,0,0,1-4.79,3.869,15.672,15.672,0,0,1-6.483,1.347,12.718,12.718,0,0,1-9.156-3.521,11.412,11.412,0,0,1-3.676-8.563,11.79,11.79,0,0,1,3.72-8.759,13.114,13.114,0,0,1,9.557-3.629,14.2,14.2,0,0,1,6.349,1.434A10.621,10.621,0,0,1,240.888,34.553Zm4.99-13.692h3.074V33.9q3.654-4.738,8.866-4.738a8.537,8.537,0,0,1,4.812,1.413,7.719,7.719,0,0,1,3.03,3.695,19.391,19.391,0,0,1,.891,6.716V52.852h-3.074v-11a35.589,35.589,0,0,0-.223-4.912,6.969,6.969,0,0,0-.98-2.565,4.927,4.927,0,0,0-2.027-1.847,6.8,6.8,0,0,0-3.052-.63,7.659,7.659,0,0,0-3.475.826,8.66,8.66,0,0,0-4.366,5.346,31.181,31.181,0,0,0-.4,6.3v8.476h-3.074Zm51.64,8.911V52.852h-2.985V48.9q-4.055,4.738-9.49,4.738a11.636,11.636,0,0,1-8.577-3.629,11.905,11.905,0,0,1-3.587-8.672,11.676,11.676,0,0,1,3.609-8.585,11.83,11.83,0,0,1,8.644-3.586,11.215,11.215,0,0,1,9.4,4.825V29.772Zm-2.807,11.649a9.279,9.279,0,0,0-9.357-9.389,8.944,8.944,0,0,0-6.683,2.8,9.388,9.388,0,0,0,.045,13.257,8.986,8.986,0,0,0,6.639,2.8,9.318,9.318,0,0,0,9.357-9.476Zm10.56-11.649h3.074V33.9q3.654-4.738,8.866-4.738a8.537,8.537,0,0,1,4.812,1.413,7.718,7.718,0,0,1,3.03,3.695,19.39,19.39,0,0,1,.891,6.716V52.852h-3.03v-11a25.61,25.61,0,0,0-.379-5.477,6.678,6.678,0,0,0-1.158-2.434,4.981,4.981,0,0,0-1.983-1.521,7.009,7.009,0,0,0-2.807-.522,7.659,7.659,0,0,0-3.475.826,8.66,8.66,0,0,0-4.366,5.346,31.18,31.18,0,0,0-.4,6.3v8.476h-3.074Zm48.788,0h3.074V47.593a20.957,20.957,0,0,1-.847,6.955,9.579,9.579,0,0,1-2.451,3.695,10.85,10.85,0,0,1-3.876,2.26,15.242,15.242,0,0,1-4.99.782q-9.267,0-12.208-7.215h3.3q2.584,4.521,8.777,4.521a11.242,11.242,0,0,0,5.191-1.13,6.888,6.888,0,0,0,3.119-2.891,12.51,12.51,0,0,0,.913-5.5v-1a11.509,11.509,0,0,1-4.322,3.3,13.027,13.027,0,0,1-5.258,1.087,11.659,11.659,0,0,1-8.6-3.434,11.251,11.251,0,0,1,.223-16.387,12.061,12.061,0,0,1,17.956,1.13Zm.134,11.171a8.512,8.512,0,0,0-2.629-6.346,8.951,8.951,0,0,0-6.505-2.565,9.172,9.172,0,0,0-6.817,2.76,8.813,8.813,0,0,0-2.718,6.368,8.008,8.008,0,0,0,2.629,6.02,10.378,10.378,0,0,0,13.433.065A8.232,8.232,0,0,0,354.192,40.943Zm29.941,4.434,2.584,1.3q-3.832,6.955-11.317,6.955a11.76,11.76,0,0,1-8.822-3.586,11.9,11.9,0,0,1-3.475-8.585,12.039,12.039,0,0,1,3.5-8.693,11.534,11.534,0,0,1,8.621-3.608,12.049,12.049,0,0,1,8.666,3.347,12.461,12.461,0,0,1,3.631,9.128h-21.3a9.5,9.5,0,0,0,2.7,6.716,8.5,8.5,0,0,0,6.215,2.543A9.646,9.646,0,0,0,384.133,45.376Zm0-6.3a8.074,8.074,0,0,0-3.119-5.173,9.329,9.329,0,0,0-5.748-1.869q-6.683,0-8.733,7.042Zm10.6,11.736a2.451,2.451,0,0,1,.8-1.847,2.71,2.71,0,0,1,3.765,0,2.484,2.484,0,0,1,.78,1.847,2.535,2.535,0,0,1-.78,1.891,2.682,2.682,0,0,1-3.765-.022A2.52,2.52,0,0,1,394.738,50.81Z" transform="translate(-1.998 40.508)" fill="#fff" stroke="#fff" stroke-width="3"/>
</svg>
