<svg xmlns="http://www.w3.org/2000/svg" width="11.927" height="19.382" viewBox="0 0 11.927 19.382">
  <path id="rooms" d="M12.728,2a5.967,5.967,0,0,0-5.719,5.8,1.491,1.491,0,1,0,2.973.154,2.983,2.983,0,1,1,2.982,2.982H8.491A1.49,1.49,0,0,0,7,12.436V19.89a1.49,1.49,0,0,0,1.491,1.491h8.945a1.49,1.49,0,0,0,1.491-1.491V8.174a6.105,6.105,0,0,0-5.554-6.162A6.1,6.1,0,0,0,12.728,2Zm.236,10.8,2.609,2.609H13.709V18.4a.745.745,0,0,1-1.491,0V15.418H10.354Z" transform="translate(-7 -2)" fill="#ff0404"/>
</svg>
