<svg xmlns="http://www.w3.org/2000/svg" width="17.477" height="17.786" viewBox="0 0 17.477 17.786">
  <path id="settings" d="M8.839,2,8.4,4.244a7.1,7.1,0,0,0-2,1.148L4.248,4.649l-2.074,3.6L3.9,9.743a6.613,6.613,0,0,0,0,2.3l-1.725,1.5,2.074,3.6L6.4,16.394a7.1,7.1,0,0,0,2,1.148l.438,2.244h4.148l.438-2.244a7.1,7.1,0,0,0,2-1.148l2.156.743,2.074-3.6-1.725-1.5a6.612,6.612,0,0,0,0-2.3l1.725-1.5-2.074-3.6-2.156.743a7.1,7.1,0,0,0-2-1.148L12.986,2Zm2.074,5.336a3.557,3.557,0,1,1-3.557,3.557A3.557,3.557,0,0,1,10.912,7.336Z" transform="translate(-2.174 -2)" fill="#ff0404"/>
</svg>
