<svg xmlns="http://www.w3.org/2000/svg" width="52" height="52" viewBox="0 0 52 52">
  <g id="twitter-icon" transform="translate(-1633 -1731)">
    <circle id="Ellipse_22" data-name="Ellipse 22" cx="26" cy="26" r="26" transform="translate(1633 1731)" fill="#5f5f5f"/>
    <path id="Path_39" data-name="Path 39" d="M48.651,29.281c12.706,0,19.62-10.464,19.62-19.62V8.727a15.189,15.189,0,0,0,3.363-3.55A15.512,15.512,0,0,1,67.71,6.3,7.27,7.27,0,0,0,70.7,2.561a17.139,17.139,0,0,1-4.3,1.682A6.673,6.673,0,0,0,61.357,2a7.02,7.02,0,0,0-6.914,6.914,3.643,3.643,0,0,0,.187,1.495,19.319,19.319,0,0,1-14.2-7.287,7.156,7.156,0,0,0-.934,3.55,7.424,7.424,0,0,0,2.99,5.793,6.3,6.3,0,0,1-3.177-.934h0a6.829,6.829,0,0,0,5.606,6.727,5.761,5.761,0,0,1-1.869.187,3.18,3.18,0,0,1-1.308-.187,7.079,7.079,0,0,0,6.54,4.858,14.108,14.108,0,0,1-8.6,2.99A5.173,5.173,0,0,1,38,25.918a17.637,17.637,0,0,0,10.651,3.363" transform="translate(1605.839 1741.152)" fill="#fff" fill-rule="evenodd"/>
  </g>
</svg>
