<svg xmlns="http://www.w3.org/2000/svg" width="48.968" height="48.379" viewBox="0 0 48.968 48.379">
  <path id="upload" d="M24.425.316c-1.023,0-2.045,1.045-4.12,3.119L7.945,15.854c-2.273,2.281-1.516,2.707.883,2.707h6.239V33.628a5.652,5.652,0,0,0,5.65,5.65h7.533a5.651,5.651,0,0,0,5.65-5.65V18.561h6.121c2.656,0,3.215-.427.942-2.707L28.545,3.436C26.47,1.361,25.448.316,24.425.316ZM0,35.512v7.533A5.652,5.652,0,0,0,5.65,48.7H43.318a5.651,5.651,0,0,0,5.65-5.65V35.512H45.2v7.533a1.887,1.887,0,0,1-1.883,1.883H5.65a1.887,1.887,0,0,1-1.883-1.883V35.512Z" transform="translate(0 -0.316)" fill="#ff0404"/>
</svg>
