<svg xmlns="http://www.w3.org/2000/svg" width="18.723" height="18.498" viewBox="0 0 18.723 18.498">
  <path id="uploads" d="M9.339.316c-.391,0-.782.4-1.575,1.193L3.038,6.257c-.869.872-.579,1.035.338,1.035H5.761v5.761a2.161,2.161,0,0,0,2.16,2.16H10.8a2.161,2.161,0,0,0,2.16-2.16V7.292H15.3c1.016,0,1.229-.163.36-1.035L10.914,1.509C10.121.716,9.73.316,9.339.316ZM0,13.773v2.88a2.161,2.161,0,0,0,2.16,2.16h14.4a2.161,2.161,0,0,0,2.16-2.16v-2.88h-1.44v2.88a.721.721,0,0,1-.72.72H2.16a.721.721,0,0,1-.72-.72v-2.88Z" transform="translate(0 -0.316)" fill="#ff0404"/>
</svg>
