<svg xmlns="http://www.w3.org/2000/svg" width="52" height="52" viewBox="0 0 52 52">
  <g id="yt-icon" transform="translate(-1783 -1731)">
    <circle id="Ellipse_24" data-name="Ellipse 24" cx="26" cy="26" r="26" transform="translate(1783 1731)" fill="#5f5f5f"/>
    <g id="Group_473" data-name="Group 473">
      <g id="icons8_play_button_2" transform="translate(1788 1735)">
        <path id="Path_259" data-name="Path 259" d="M37.911,30.54A4.32,4.32,0,0,1,34.278,34a90.035,90.035,0,0,1-12.976.952A92.177,92.177,0,0,1,8.325,34a4.32,4.32,0,0,1-3.633-3.46A50.633,50.633,0,0,1,4,21.976a50.633,50.633,0,0,1,.692-8.564,4.32,4.32,0,0,1,3.633-3.46A90.034,90.034,0,0,1,21.3,9a91.1,91.1,0,0,1,12.976.952,4.32,4.32,0,0,1,3.633,3.46,49.076,49.076,0,0,1,.779,8.564A59.409,59.409,0,0,1,37.911,30.54Z" fill="#fff"/>
        <path id="Path_260" data-name="Path 260" d="M20,29.111V17l10.381,6.056Z" transform="translate(-2.159 -1.079)" fill="#acacac"/>
      </g>
    </g>
  </g>
</svg>
